# xmcd CD database file
#
# Track frame offsets:
#	150
#	10803
#	21521
#	31368
#	44313
#	56692
#	68097
#	82384
#	95589
#	106393
#	115659
#	128738
#	141707
#	154644
#	165776
#	181746
#	192502
#	205292
#	221217
#	231376
#	245655
#	259168
#	273048
#	285723
#	295162
#	304641
#	314130
#
# Disc length: 4386 seconds
#
# Revision: 0
# Processed by: cddbd v1.5.1PL2 Copyright (c) Steve Scherf et al.
# Submitted via: CDex 1.51
#
DISCID=9911201b
DTITLE=Dean Mitchell - Waitin' for a Train [CD1 of 4)
DYEAR=1999
DGENRE=Country
TTITLE0=Waitin' for a Train
TTITLE1=Any Old Time
TTITLE2=Yodeling Cowboy
TTITLE3=Whisper Your Mother's Name
TTITLE4=When the Cactus Is In Bloom
TTITLE5=What's It
TTITLE6=I've Only Loved Three Women
TTITLE7=Tuck Away My Lonesome Blues
TTITLE8=The Land of My Boyhood Dreams
TTITLE9=That's Why I'm Blue
TTITLE10=Why There's a Tear In My Eye
TTITLE11=Sweet Mama Hurry Home or I'll Be Gone
TTITLE12=She Was Happy `til She Met You
TTITLE13=Sailor's Plea
TTITLE14=My Time Ain't Long
TTITLE15=Mississippi River Blues
TTITLE16=Looking for a New Mama
TTITLE17=I've Ranged I've Roamed I've Traveled
TTITLE18=I'm Sorry We Met
TTITLE19=I'm Lonesome Too
TTITLE20=Ramblin' Polka Dot Blues
TTITLE21=For the Sake of Days Gone By
TTITLE22=Dreaming with Tears In My Eyes
TTITLE23=Carter Family Interview
TTITLE24=Blue Yodel #4 (California Blues)
TTITLE25=Yodeling Ranger
TTITLE26=My Mother Was a Lady
EXTD=YEAR: 1999
EXTT0=
EXTT1=
EXTT2=
EXTT3=
EXTT4=
EXTT5=
EXTT6=
EXTT7=
EXTT8=
EXTT9=
EXTT10=
EXTT11=
EXTT12=
EXTT13=
EXTT14=
EXTT15=
EXTT16=
EXTT17=
EXTT18=
EXTT19=
EXTT20=
EXTT21=
EXTT22=
EXTT23=
EXTT24=
EXTT25=
EXTT26=
PLAYORDER=
